<svg xmlns="http://www.w3.org/2000/svg" width="256" height="256" viewBox="0 0 100 100"><rect width="100" height="100" rx="20" fill="#ffffff"></rect><path d="M46.00 77.18L46.00 77.18Q45.46 77.36 44.56 77.58Q43.66 77.81 42.58 77.81L42.58 77.81Q38.62 77.81 38.62 74.48L38.62 74.48L38.62 52.70L10.54 52.70L10.54 77.18Q10.00 77.36 9.10 77.58Q8.20 77.81 7.12 77.81L7.12 77.81Q3.16 77.81 3.16 74.48L3.16 74.48L3.16 22.82Q3.61 22.64 4.55 22.41Q5.50 22.19 6.58 22.19L6.58 22.19Q10.54 22.19 10.54 25.52L10.54 25.52L10.54 46.58L38.62 46.58L38.62 22.82Q39.07 22.64 40.01 22.41Q40.96 22.19 42.04 22.19L42.04 22.19Q46.00 22.19 46.00 25.52L46.00 25.52L46.00 77.18ZM77.14 72.41L77.14 72.41Q83.17 72.41 86.27 69.67Q89.38 66.92 89.38 62.60L89.38 62.60Q89.38 58.82 86.99 56.48Q84.61 54.14 79.48 52.61L79.48 52.61L71.65 50.27Q65.89 48.56 62.60 45.23Q59.32 41.90 59.32 36.23L59.32 36.23Q59.32 32.81 60.62 30.06Q61.93 27.32 64.36 25.43Q66.79 23.54 70.16 22.51Q73.54 21.47 77.77 21.47L77.77 21.47Q81.37 21.47 84.47 22.05Q87.58 22.64 89.87 23.68Q92.17 24.71 93.43 25.97Q94.69 27.23 94.69 28.58L94.69 28.58Q94.69 29.84 94.06 30.74Q93.43 31.64 92.44 32.18L92.44 32.18Q90.09 30.38 86.36 29.03Q82.63 27.68 78.04 27.68L78.04 27.68Q72.73 27.68 69.71 29.93Q66.70 32.18 66.70 36.23L66.70 36.23Q66.70 39.38 68.86 41.36Q71.02 43.34 76.06 44.78L76.06 44.78L81.55 46.40Q88.66 48.47 92.75 52.20Q96.84 55.94 96.84 62.60L96.84 62.60Q96.84 69.71 91.72 74.12Q86.59 78.53 77.14 78.53L77.14 78.53Q73.00 78.53 69.62 77.81Q66.25 77.09 63.86 75.92Q61.48 74.75 60.17 73.36Q58.87 71.96 58.87 70.61L58.87 70.61Q58.87 69.08 59.81 68.05Q60.76 67.01 62.02 66.56L62.02 66.56Q63.01 67.55 64.45 68.58Q65.89 69.62 67.78 70.47Q69.67 71.33 72.01 71.87Q74.35 72.41 77.14 72.41Z" fill="#ff5a5f"></path></svg>